<?xml version="1.0" standalone="no"?>
<!DOCTYPE svg PUBLIC "-//W3C//DTD SVG 20010904//EN"
 "http://www.w3.org/TR/2001/REC-SVG-20010904/DTD/svg10.dtd">
<svg version="1.0" xmlns="http://www.w3.org/2000/svg"
 width="902.000000pt" height="296.000000pt" viewBox="0 0 902.000000 296.000000"
 preserveAspectRatio="xMidYMid meet">

<g transform="translate(0.000000,296.000000) scale(0.100000,-0.100000)"
fill="white" stroke="none">
<path d="M1532 2721 c-13 -14 -57 -66 -99 -116 -42 -49 -79 -91 -83 -93 -3 -1
-14 14 -23 34 l-17 36 -19 -23 c-18 -23 -18 -24 4 -59 12 -19 48 -86 80 -147
l57 -113 -64 -87 c-87 -118 -144 -203 -135 -203 2 0 24 30 49 68 51 77 194
258 227 286 13 12 25 16 30 10 41 -45 149 -191 214 -289 136 -206 224 -410
261 -604 29 -154 16 -344 -32 -467 -49 -123 -181 -311 -275 -393 -98 -84 -145
-91 -243 -36 -161 90 -295 227 -370 380 -58 119 -75 187 -81 325 -6 134 11
247 57 373 17 44 28 82 26 84 -11 11 -83 -207 -107 -322 -12 -58 -12 -59 -22
-30 -5 17 -10 104 -10 195 -1 187 15 299 67 472 26 85 29 104 16 95 -9 -7
-211 -171 -449 -366 l-432 -354 23 -23 c13 -12 333 -279 712 -593 l688 -571
57 49 c31 27 340 284 686 571 347 287 630 526 630 531 0 4 -213 181 -474 391
-261 211 -478 390 -482 398 -5 8 -30 65 -56 125 -47 107 -123 244 -164 295
l-20 25 -15 -22 c-16 -22 -17 -21 -96 82 -44 58 -83 107 -86 109 -4 2 -17 -9
-30 -23z m70 -113 c36 -46 71 -93 79 -105 17 -28 26 -29 34 -3 3 11 10 20 15
20 22 0 140 -210 205 -365 121 -288 165 -538 143 -804 -12 -142 -27 -164 -28
-40 0 178 -42 335 -144 544 -57 116 -167 292 -258 414 l-33 43 43 82 c37 70
40 86 6 29 -10 -17 -16 -14 -73 31 l-62 48 -59 -51 -59 -51 -25 43 c-15 24
-26 47 -26 52 0 16 155 195 170 195 4 0 36 -37 72 -82z"/>
<path d="M4365 2270 c-124 -17 -232 -84 -297 -184 -96 -149 -104 -326 -21
-489 122 -242 514 -287 718 -83 155 155 175 427 46 604 -82 112 -269 175 -446
152z m125 -30 c144 -27 258 -145 291 -300 6 -31 10 -99 7 -159 -4 -89 -9 -116
-33 -169 -116 -257 -466 -255 -607 4 -69 127 -78 315 -21 435 50 105 127 167
236 188 59 12 68 12 127 1z"/>
<path d="M5226 2270 c-106 -19 -168 -93 -167 -200 0 -86 27 -137 114 -213 200
-176 217 -199 217 -282 0 -92 -69 -155 -170 -155 -94 0 -153 43 -176 127 l-13
48 0 -88 -1 -88 37 -16 c48 -20 174 -22 234 -4 126 36 193 164 154 296 -18 64
-78 131 -217 243 -110 88 -138 151 -102 228 23 49 70 74 138 74 93 0 156 -39
156 -97 0 -12 4 -24 8 -27 4 -2 9 28 10 69 l2 73 -45 6 c-96 13 -132 14 -179
6z"/>
<path d="M5845 2260 c-132 -3 -226 -7 -210 -8 17 -1 41 -9 53 -18 l22 -15 0
-382 c0 -418 0 -421 -58 -430 -15 -2 80 -5 210 -6 130 0 239 3 242 7 2 4 7 37
11 72 5 61 5 63 -7 31 -22 -59 -57 -76 -157 -76 -119 0 -137 12 -146 97 -3 35
-5 117 -3 183 l3 120 89 3 c105 3 144 -9 152 -47 3 -14 7 -30 8 -35 1 -5 6 27
12 71 9 79 9 80 -11 68 -11 -7 -68 -16 -126 -19 -85 -5 -109 -4 -118 8 -8 9
-11 62 -9 172 l3 159 100 3 c116 2 145 -8 162 -58 l12 -35 0 40 c1 22 5 55 10
73 5 17 7 31 3 30 -4 -1 -115 -5 -247 -8z"/>
<path d="M3224 2251 c67 -14 66 -5 66 -408 0 -404 -3 -428 -57 -436 -15 -2 37
-4 117 -4 88 0 128 2 102 6 -23 4 -48 13 -55 20 -8 8 -13 63 -15 176 l-3 165
80 0 80 0 105 -139 c109 -142 168 -205 212 -221 14 -6 67 -9 117 -9 81 1 86 2
45 9 -61 11 -102 36 -164 102 -47 50 -202 239 -218 265 -4 7 12 35 40 69 62
77 84 131 84 208 0 86 -36 143 -111 176 -51 23 -66 25 -259 27 -123 1 -189 -2
-166 -6z m331 -40 c80 -36 115 -103 115 -221 -1 -134 -53 -190 -178 -190 -118
0 -112 -12 -112 219 0 109 3 201 7 204 14 14 129 6 168 -12z"/>
<path d="M6286 2253 c18 -2 40 -13 50 -25 18 -19 19 -44 19 -398 0 -354 -1
-379 -19 -398 -10 -12 -30 -23 -45 -25 -14 -2 58 -5 160 -6 221 -1 259 8 329
78 69 70 90 171 51 256 -21 46 -88 111 -137 131 -19 8 -34 17 -34 19 0 3 18
28 40 56 88 112 75 234 -33 292 -39 20 -56 22 -227 23 -102 1 -171 0 -154 -3z
m275 -23 c120 -33 160 -232 64 -320 -22 -21 -36 -25 -88 -25 -102 1 -97 -9
-97 175 0 157 0 161 23 170 30 12 55 12 98 0z m29 -380 c125 -35 212 -236 148
-344 -33 -55 -86 -81 -167 -80 -70 2 -111 23 -122 65 -4 13 -7 102 -8 197 l-1
172 58 0 c31 0 73 -4 92 -10z"/>
<path d="M6954 2250 c65 -12 66 -16 66 -279 0 -325 17 -420 88 -494 66 -70
207 -108 323 -87 134 24 210 90 252 215 5 16 13 159 16 317 6 259 8 288 25
307 10 11 30 22 45 24 14 2 -32 4 -104 4 -71 0 -115 -2 -98 -4 20 -3 41 -15
54 -31 20 -26 20 -34 17 -307 -4 -260 -5 -284 -26 -336 -40 -100 -127 -159
-237 -159 -102 0 -185 55 -229 150 -20 42 -21 65 -24 344 -3 327 -3 330 57
339 14 2 -39 4 -119 4 -92 1 -131 -2 -106 -7z"/>
<path d="M7923 2250 c21 -4 43 -12 50 -19 16 -16 23 -713 7 -771 -9 -33 -16
-41 -43 -48 -48 -13 405 -26 468 -13 182 36 291 133 344 305 65 212 -27 431
-214 511 -84 35 -178 45 -418 44 -131 -1 -215 -5 -194 -9z m393 -29 c102 -20
163 -50 228 -115 89 -87 119 -153 124 -278 6 -142 -19 -221 -96 -298 -83 -83
-144 -105 -292 -105 -98 0 -120 3 -150 20 -19 12 -37 32 -41 45 -4 14 -7 181
-8 372 -1 321 0 348 17 357 22 13 154 14 218 2z"/>
<path d="M1105 1719 c-4 -6 -5 -12 -2 -15 2 -3 7 2 10 11 7 17 1 20 -8 4z"/>
<path d="M3662 1281 c-96 -33 -142 -96 -142 -194 0 -78 37 -144 118 -215 202
-174 237 -227 212 -318 -21 -73 -80 -114 -165 -114 -95 0 -162 51 -172 131 -9
62 -23 26 -23 -58 0 -72 0 -73 33 -89 18 -10 64 -19 108 -22 187 -11 303 83
302 245 -1 83 -38 149 -124 221 -193 161 -219 192 -219 259 0 42 32 94 71 115
27 15 48 18 98 15 77 -6 109 -27 133 -88 l17 -44 1 55 c0 30 3 64 6 76 5 19
-1 22 -65 32 -94 16 -126 15 -189 -7z"/>
<path d="M4424 1291 c-155 -25 -265 -101 -328 -227 -38 -76 -49 -134 -44 -241
3 -84 8 -108 35 -165 61 -129 190 -222 346 -248 91 -16 289 -8 338 13 35 14
37 18 48 83 7 38 14 77 16 86 7 39 -12 24 -28 -22 -31 -87 -93 -120 -228 -120
-177 0 -317 88 -392 248 -26 56 -32 82 -35 161 -3 53 1 117 7 147 25 108 117
207 221 235 25 7 86 13 135 13 170 1 262 -48 288 -153 l14 -54 6 54 c4 30 7
79 7 109 l0 56 -92 12 c-125 18 -252 23 -314 13z"/>
<path d="M6297 1289 c-114 -22 -236 -108 -294 -207 -131 -222 -49 -529 168
-633 81 -40 150 -52 248 -46 256 15 431 202 431 461 0 141 -37 234 -125 315
-104 96 -273 139 -428 110z m207 -50 c149 -55 239 -207 240 -404 1 -257 -142
-412 -361 -392 -201 19 -333 192 -333 436 0 112 16 176 61 244 79 119 250 170
393 116z"/>
<path d="M7283 1285 c-306 -67 -442 -436 -261 -709 37 -57 113 -116 188 -147
47 -20 73 -23 175 -23 101 0 129 3 177 23 116 45 213 143 260 259 19 48 23 75
23 177 0 147 -20 206 -97 290 -107 117 -290 168 -465 130z m249 -58 c71 -35
131 -100 171 -185 28 -60 31 -78 35 -183 3 -89 0 -130 -13 -175 -47 -165 -172
-255 -336 -241 -204 17 -341 192 -342 436 -1 244 132 387 349 378 63 -3 93 -9
136 -30z"/>
<path d="M4983 1268 c70 -19 69 -13 65 -425 -2 -202 -7 -376 -12 -386 -5 -10
-21 -21 -37 -24 -16 -3 -29 -8 -29 -12 0 -8 278 -6 287 2 3 4 -10 7 -30 7 -60
0 -74 23 -82 131 -3 52 -5 144 -3 204 l3 110 255 0 255 0 -1 -197 c0 -167 -3
-200 -17 -222 -12 -17 -26 -26 -44 -26 -14 0 -24 -3 -20 -6 9 -9 287 -10 287
-1 0 4 -15 7 -33 7 -22 0 -41 8 -53 21 -18 20 -19 44 -22 386 -2 257 0 374 8
393 7 17 23 31 43 38 25 8 2 10 -108 10 -109 0 -132 -2 -105 -10 62 -17 64
-22 68 -193 l4 -155 -262 0 -262 0 4 154 c4 167 8 180 62 195 22 7 -11 9 -114
9 -116 0 -137 -2 -107 -10z"/>
<path d="M7967 1268 c27 -6 48 -17 55 -31 10 -17 13 -111 13 -382 -1 -399 -3
-414 -60 -426 -39 -9 -47 -8 227 -15 169 -4 243 -2 253 6 7 6 16 34 20 63 3
29 9 60 11 70 3 9 1 17 -5 17 -5 0 -12 -13 -16 -29 -15 -71 -95 -102 -222 -87
-63 7 -87 18 -99 43 -13 26 -17 703 -5 735 7 18 21 29 48 36 30 8 8 10 -112
10 -118 0 -141 -2 -108 -10z"/>
</g>
</svg>
