<?xml version="1.0" standalone="no"?>
<!DOCTYPE svg PUBLIC "-//W3C//DTD SVG 20010904//EN"
 "http://www.w3.org/TR/2001/REC-SVG-20010904/DTD/svg10.dtd">
<svg version="1.0" xmlns="http://www.w3.org/2000/svg"
 width="4688.000000pt" height="3794.000000pt" viewBox="0 0 4688.000000 3794.000000"
 preserveAspectRatio="xMidYMid meet">

<g transform="translate(0.000000,3794.000000) scale(0.100000,-0.100000)"
fill="white" stroke="none">
<path d="M23113 36923 c-535 -558 -943 -1036 -1455 -1703 -17 -23 -30 -32 -36
-25 -6 6 -64 102 -130 215 -65 113 -144 247 -175 299 l-55 94 -54 -74 c-319
-432 -644 -936 -948 -1469 -338 -593 -713 -1364 -975 -2005 -42 -104 -85 -198
-94 -209 -9 -10 -1664 -1330 -3679 -2934 -3515 -2797 -3663 -2916 -3645 -2933
39 -37 11197 -9469 11202 -9469 8 0 11215 9460 11219 9470 1 4 -1648 1326
-3666 2938 l-3668 2931 -74 193 c-445 1173 -1071 2352 -1783 3358 -153 216
-131 201 -188 126 -60 -79 -156 -226 -189 -289 -14 -26 -28 -47 -31 -47 -3 0
-21 21 -39 48 -79 111 -406 543 -558 737 -281 357 -767 945 -783 945 -4 0 -92
-89 -196 -197z m20 -294 c355 -421 660 -795 903 -1109 190 -244 414 -546 414
-557 0 -5 -76 -144 -170 -309 -93 -164 -170 -302 -170 -306 0 -4 -6 -8 -12 -8
-7 0 -238 180 -512 399 l-500 400 -65 -52 c-36 -29 -255 -202 -485 -386 -231
-184 -427 -336 -435 -338 -11 -2 -28 19 -55 69 -50 94 -355 637 -372 664 -13
19 -3 33 123 190 228 283 497 596 747 869 176 192 516 545 524 544 4 0 33 -32
65 -70z m-2059 -1337 c411 -714 606 -1065 843 -1517 142 -269 363 -712 363
-725 0 -6 -42 -61 -93 -123 -655 -787 -1301 -1714 -1830 -2622 -200 -344 -330
-584 -521 -965 -688 -1365 -1103 -2572 -1252 -3637 -10 -68 -20 -123 -24 -123
-18 0 -97 506 -130 830 -36 357 -41 462 -47 920 -7 577 10 937 68 1470 216
1979 974 4096 2107 5885 189 298 450 675 466 675 6 0 28 -31 50 -68z m3733
-48 c116 -158 360 -523 485 -724 707 -1138 1326 -2528 1778 -3995 476 -1549
633 -3147 460 -4700 -37 -327 -114 -747 -175 -955 l-25 -85 5 100 c3 55 10
179 16 275 13 198 6 772 -11 975 -53 623 -157 1184 -335 1800 -192 663 -436
1281 -786 1985 -560 1129 -1279 2232 -2251 3452 l-189 237 102 203 c267 535
821 1542 844 1535 6 -2 43 -48 82 -103z m-1557 -1713 c774 -919 1384 -1735
1920 -2566 511 -791 967 -1658 1278 -2425 757 -1871 907 -3625 453 -5287 -87
-317 -183 -541 -419 -973 -455 -834 -1086 -1712 -1576 -2193 -146 -144 -401
-364 -591 -512 -310 -242 -525 -351 -791 -401 -122 -22 -338 -15 -443 16 -79
22 -328 143 -551 268 -2134 1188 -3419 2993 -3660 5142 -59 528 -52 1124 20
1670 59 443 147 854 281 1300 525 1760 1614 3627 3108 5330 296 337 775 844
792 838 4 -2 85 -95 179 -207z"/>
<path d="M10805 15330 c-774 -57 -1367 -284 -1922 -737 -459 -375 -861 -985
-1052 -1598 -118 -381 -165 -678 -164 -1050 0 -455 74 -860 238 -1300 228
-615 562 -1064 1083 -1458 342 -260 744 -434 1212 -527 847 -167 1703 -69
2387 273 693 348 1229 915 1548 1640 309 699 393 1531 235 2307 -260 1270
-1233 2170 -2595 2399 -284 48 -707 70 -970 51z m590 -318 c573 -99 1085 -387
1454 -815 313 -365 539 -817 657 -1315 166 -705 145 -1617 -52 -2269 -95 -315
-272 -654 -467 -898 -222 -277 -585 -533 -933 -660 -131 -48 -389 -110 -539
-130 -156 -21 -499 -16 -658 10 -575 92 -1034 323 -1433 720 -325 324 -565
717 -729 1195 -250 730 -278 1718 -69 2442 121 424 338 804 618 1084 174 173
348 296 581 409 170 83 303 132 473 174 255 64 411 80 727 76 197 -2 276 -7
370 -23z"/>
<path d="M17630 15329 c-516 -45 -903 -213 -1190 -515 -235 -248 -353 -538
-381 -936 -22 -308 30 -581 165 -870 160 -345 462 -690 985 -1122 87 -72 259
-214 382 -316 268 -221 559 -506 675 -661 215 -290 293 -536 281 -892 -4 -129
-10 -182 -30 -259 -80 -306 -298 -582 -565 -717 -281 -142 -712 -180 -1052
-95 -185 47 -358 126 -487 223 -114 86 -195 185 -265 326 -84 167 -117 302
-127 523 -7 164 -10 172 -62 172 -53 0 -63 -37 -85 -335 -12 -152 -18 -349
-18 -580 -1 -331 0 -352 19 -383 25 -42 67 -69 185 -119 199 -85 382 -133 640
-170 180 -25 657 -25 820 0 330 52 575 132 795 262 133 78 206 136 340 270
182 182 282 330 365 542 49 125 103 311 127 435 24 128 24 452 0 593 -103 604
-441 1061 -1261 1710 -552 437 -655 523 -836 706 -312 313 -432 562 -431 894
1 354 119 619 354 796 142 107 298 174 482 205 79 13 137 16 285 11 281 -8
502 -52 662 -133 77 -39 252 -176 298 -233 66 -85 134 -291 160 -491 14 -102
29 -130 71 -130 54 0 57 23 69 457 5 213 15 453 21 533 13 178 16 174 -123
183 -51 3 -181 24 -288 46 -107 22 -256 47 -330 55 -169 20 -512 28 -650 15z"/>
<path d="M24235 15274 c-182 -70 -246 -73 -1390 -80 -687 -5 -1040 -3 -1180 5
-110 6 -348 14 -530 18 -352 6 -404 1 -426 -38 -14 -26 -4 -65 18 -74 10 -4
81 -11 158 -16 277 -16 423 -85 490 -231 72 -157 75 -270 75 -2668 0 -1890 -6
-2442 -30 -2730 -28 -341 -88 -517 -194 -576 -44 -25 -177 -54 -286 -61 -81
-6 -110 -21 -110 -58 0 -12 9 -30 21 -41 25 -23 77 -23 734 -10 289 6 489 5
640 -3 394 -20 926 -32 1453 -34 584 -2 601 0 660 67 65 74 99 237 162 771 32
273 26 345 -30 345 -48 0 -62 -26 -91 -177 -76 -394 -220 -552 -566 -622 -139
-29 -332 -41 -644 -41 -600 0 -814 64 -913 274 -51 107 -66 182 -77 386 -12
218 -1 2300 12 2321 10 16 306 16 794 -2 506 -17 617 -32 745 -96 140 -71 206
-202 217 -428 5 -127 9 -142 34 -156 33 -17 66 -3 77 33 6 18 13 98 17 178 15
361 39 612 81 848 21 122 23 146 12 170 -25 51 -51 42 -141 -51 -92 -94 -119
-107 -274 -133 -179 -30 -1534 -49 -1561 -22 -9 9 -12 303 -12 1259 0 1121 2
1249 16 1263 19 19 104 20 736 6 460 -10 579 -21 753 -65 207 -52 294 -122
343 -275 28 -88 31 -107 41 -237 9 -125 23 -157 70 -151 55 7 71 83 91 438 12
210 33 377 61 498 22 94 25 182 7 200 -15 15 -14 15 -63 -4z"/>
<path d="M1350 15213 c-14 -3 -33 -12 -42 -20 -22 -20 -23 -66 -3 -83 9 -7 71
-15 157 -21 342 -20 472 -102 532 -333 32 -122 36 -389 36 -2576 1 -2458 -4
-2698 -60 -2980 -37 -185 -80 -272 -154 -315 -46 -26 -153 -50 -266 -60 -41
-3 -85 -8 -97 -11 -30 -6 -45 -36 -34 -67 18 -47 54 -51 411 -41 402 11 651
11 1215 1 417 -8 442 -8 475 10 24 12 36 26 38 44 5 46 -16 55 -140 63 -156
10 -333 33 -394 51 -58 17 -122 60 -153 103 -113 160 -141 501 -141 1752 0
544 3 719 12 728 13 13 309 15 843 3 279 -5 313 -8 337 -25 27 -17 140 -169
508 -676 452 -623 969 -1294 1166 -1514 220 -246 460 -411 698 -480 191 -55
269 -61 886 -61 525 0 568 1 593 18 34 22 36 61 5 81 -15 9 -67 16 -148 19
-258 13 -439 55 -649 153 -444 207 -767 559 -2185 2377 l-248 317 178 183
c433 441 675 831 793 1279 50 186 64 295 64 488 1 310 -63 560 -197 773 -179
285 -337 434 -608 573 -198 101 -371 157 -600 194 -355 57 -623 67 -1298 47
-320 -9 -566 -12 -695 -7 -282 11 -805 19 -835 13z m2315 -297 c221 -40 437
-129 590 -244 316 -235 505 -587 582 -1082 22 -144 25 -566 5 -705 -76 -527
-285 -891 -602 -1050 -172 -87 -319 -109 -655 -102 -420 10 -759 74 -830 159
l-25 30 0 1452 c0 1609 -5 1482 65 1511 33 14 215 42 320 49 133 8 461 -2 550
-18z"/>
<path d="M26020 15210 c-58 -14 -78 -61 -40 -95 16 -15 46 -20 158 -26 343
-18 483 -108 536 -345 31 -139 36 -486 36 -2559 0 -2299 -7 -2657 -56 -2947
-35 -209 -85 -312 -174 -358 -46 -23 -170 -49 -274 -57 -87 -6 -116 -21 -116
-58 0 -12 9 -30 21 -41 25 -23 94 -24 704 -10 317 7 444 5 675 -8 157 -8 389
-21 515 -26 812 -38 1414 153 1874 595 381 366 584 912 532 1430 -23 221 -73
408 -158 583 -112 230 -324 491 -539 663 -189 150 -487 320 -679 385 -44 15
-84 31 -89 35 -6 5 35 54 95 116 159 164 298 337 426 528 161 240 239 476 265
797 15 184 3 285 -52 449 -75 227 -153 353 -313 505 -201 192 -422 311 -709
379 -289 68 -545 82 -1148 62 -298 -9 -522 -12 -650 -7 -343 14 -804 19 -840
10z m2113 -255 c291 -51 517 -202 688 -460 255 -383 336 -1064 176 -1485 -81
-215 -226 -421 -358 -509 -129 -86 -277 -106 -718 -98 -291 6 -419 16 -473 38
-19 8 -31 23 -38 48 -8 24 -10 412 -8 1214 l3 1179 23 18 c24 20 124 45 232
59 114 15 378 12 473 -4z m85 -2819 c302 -49 489 -131 716 -312 347 -278 548
-601 671 -1079 53 -204 69 -334 69 -540 -1 -416 -96 -685 -321 -907 -99 -98
-168 -150 -263 -198 -247 -124 -511 -168 -835 -141 -428 36 -694 144 -772 312
-28 59 -50 172 -63 324 -17 187 -26 2514 -10 2544 l12 23 346 -5 c256 -3 374
-9 450 -21z"/>
<path d="M31437 15211 c-42 -14 -57 -30 -57 -62 0 -42 28 -51 180 -60 202 -12
337 -53 425 -130 38 -34 86 -126 104 -203 28 -116 33 -367 41 -2016 8 -1770 8
-1758 50 -2071 57 -426 193 -810 398 -1124 334 -514 894 -837 1622 -936 189
-26 598 -37 766 -20 237 25 527 89 703 156 207 78 465 230 666 391 305 245
552 606 680 998 91 276 167 711 195 1106 5 82 12 800 14 1655 3 883 10 1573
16 1661 27 398 117 501 468 534 58 5 111 15 118 21 22 18 17 67 -8 83 -41 26
-95 28 -430 15 -428 -16 -388 -16 -913 0 -475 14 -512 12 -538 -30 -13 -21 -1
-65 20 -74 10 -4 81 -11 158 -16 341 -20 483 -118 530 -363 29 -153 37 -636
32 -2131 -4 -1464 -5 -1499 -42 -1800 -87 -694 -275 -1129 -623 -1438 -222
-197 -525 -347 -836 -413 -101 -22 -156 -27 -337 -31 -582 -14 -946 120 -1339
493 -293 279 -486 707 -565 1253 -47 326 -48 332 -52 1946 -5 1579 2 1992 33
2142 33 159 80 235 176 282 63 30 204 61 283 61 66 0 114 18 121 45 3 13 1 32
-5 44 -22 41 -70 44 -476 32 -209 -6 -398 -14 -420 -16 -22 -3 -157 -1 -300 4
-420 16 -828 21 -858 12z"/>
<path d="M39093 15210 c-18 -6 -38 -20 -44 -31 -14 -26 -4 -65 18 -74 10 -4
81 -11 158 -16 277 -16 423 -85 490 -231 72 -158 75 -258 75 -2633 -1 -1904
-7 -2487 -30 -2764 -30 -353 -86 -517 -199 -580 -46 -25 -221 -60 -307 -61
-77 0 -111 -52 -63 -96 25 -23 107 -24 669 -10 334 8 375 7 695 -18 1243 -95
1782 -97 2301 -11 451 75 924 250 1254 463 563 363 945 828 1233 1503 172 404
261 873 261 1389 1 545 -93 991 -295 1409 -230 476 -470 773 -865 1072 -356
269 -683 417 -1199 544 -312 77 -563 114 -935 137 -247 16 -1467 16 -1880 0
-162 -6 -363 -6 -490 -2 -403 15 -814 20 -847 10z m2702 -305 c305 -27 579
-72 850 -142 424 -108 785 -302 1160 -626 304 -261 505 -525 711 -932 154
-305 231 -567 286 -975 19 -140 22 -212 23 -470 0 -191 -5 -344 -13 -410 -72
-587 -236 -1063 -487 -1415 -275 -386 -788 -729 -1330 -889 -151 -44 -275 -72
-440 -98 -252 -39 -850 -35 -1185 8 -318 41 -581 135 -696 249 -102 101 -126
252 -144 885 -13 451 -13 4566 0 4645 8 49 16 66 44 92 41 37 76 49 216 68
151 21 162 21 515 23 214 1 376 -3 490 -13z"/>
<path d="M5230 7663 c-730 -32 -1268 -330 -1528 -848 -87 -175 -136 -370 -152
-614 -22 -320 34 -599 180 -896 116 -238 255 -421 520 -686 189 -189 293 -281
724 -635 543 -446 779 -693 920 -964 105 -203 148 -383 147 -629 0 -282 -68
-492 -230 -709 -236 -316 -592 -464 -1081 -449 -122 4 -205 12 -275 27 -295
63 -561 207 -698 379 -151 189 -229 418 -243 709 -7 152 -14 172 -57 172 -42
0 -61 -28 -71 -100 -28 -200 -58 -996 -42 -1122 11 -86 36 -116 145 -170 323
-161 824 -246 1296 -218 635 37 1112 247 1448 638 159 185 248 344 326 585 85
264 96 334 95 607 0 215 -2 246 -27 361 -66 312 -203 595 -416 859 -213 264
-492 519 -1011 925 -589 461 -850 725 -980 989 -76 154 -101 253 -107 421 -17
445 160 765 522 947 173 87 360 123 595 114 356 -13 607 -80 774 -205 131 -99
205 -177 243 -258 41 -89 77 -221 98 -361 24 -156 40 -185 94 -167 38 12 43
57 51 415 4 190 14 430 21 533 11 171 11 189 -4 204 -11 12 -45 18 -119 24
-57 4 -168 22 -248 39 -206 44 -392 69 -608 80 -103 5 -198 9 -212 8 -14 -1
-54 -3 -90 -5z"/>
<path d="M11305 7660 c-441 -20 -860 -88 -1171 -189 -485 -158 -960 -448
-1240 -758 -453 -501 -671 -905 -829 -1533 -87 -346 -110 -547 -102 -909 9
-408 60 -723 183 -1121 133 -429 374 -824 717 -1177 280 -288 564 -492 928
-667 518 -249 1072 -369 1821 -396 765 -28 1558 70 1862 228 104 54 130 105
191 377 63 279 161 927 149 983 -17 80 -48 107 -93 83 -29 -16 -36 -33 -61
-149 -28 -135 -98 -341 -154 -456 -103 -211 -257 -361 -494 -480 -163 -82
-398 -141 -682 -172 -187 -20 -599 -23 -775 -5 -629 64 -1132 263 -1615 637
-136 105 -385 350 -492 484 -406 508 -646 1117 -699 1774 -15 189 -6 642 16
831 62 527 194 931 408 1250 115 171 299 384 427 493 212 182 568 358 879 437
468 117 1161 140 1658 54 426 -73 844 -240 1066 -424 221 -183 360 -499 374
-850 3 -71 9 -147 14 -167 11 -42 39 -63 75 -54 55 14 62 67 74 568 11 446 21
630 46 855 25 210 21 216 -174 233 -168 16 -367 45 -624 90 -299 54 -445 76
-618 94 -322 34 -773 49 -1065 36z"/>
<path d="M26199 7660 c-521 -29 -980 -143 -1369 -341 -516 -263 -900 -604
-1230 -1094 -302 -449 -497 -971 -577 -1545 -21 -156 -25 -608 -5 -775 70
-596 273 -1176 566 -1619 221 -333 543 -649 896 -882 490 -323 1134 -494 1860
-495 950 -1 1753 308 2391 919 816 782 1197 1992 1008 3207 -86 549 -292 1031
-620 1447 -97 122 -329 356 -449 452 -507 405 -1188 661 -1905 715 -203 16
-407 19 -566 11z m476 -314 c520 -77 984 -303 1351 -659 614 -593 927 -1442
927 -2512 -1 -818 -158 -1433 -500 -1953 -185 -281 -410 -493 -717 -675 -337
-199 -746 -309 -1156 -308 -690 0 -1306 247 -1787 714 -162 158 -262 278 -382
457 -115 174 -203 334 -278 507 -326 751 -402 1782 -193 2613 189 750 651
1331 1284 1613 273 122 518 182 901 221 82 8 454 -4 550 -18z"/>
<path d="M34075 7659 c-533 -28 -1003 -149 -1404 -360 -549 -291 -950 -672
-1280 -1218 -252 -416 -416 -890 -487 -1406 -25 -181 -25 -602 -1 -805 49
-402 155 -776 331 -1167 309 -689 930 -1282 1628 -1557 546 -215 1280 -291
1918 -200 521 75 971 245 1390 524 329 221 668 559 890 890 536 800 731 1842
530 2840 -116 578 -377 1079 -775 1489 -245 252 -480 424 -800 586 -373 189
-766 305 -1215 360 -118 14 -479 36 -545 33 -16 0 -97 -5 -180 -9z m358 -300
c446 -39 895 -211 1256 -482 123 -92 331 -294 432 -420 381 -473 604 -1037
684 -1727 78 -677 7 -1419 -186 -1945 -83 -227 -246 -525 -387 -709 -163 -213
-439 -439 -712 -584 -250 -133 -594 -227 -913 -251 -120 -9 -376 0 -507 19
-394 55 -742 187 -1070 405 -575 382 -1004 1022 -1194 1780 -214 851 -163
1837 129 2512 87 199 217 415 348 578 92 114 296 308 408 387 466 332 1093
492 1712 437z"/>
<path d="M15215 7542 c-72 -7 -104 -37 -90 -83 9 -27 44 -39 118 -39 168 0
355 -43 444 -103 90 -60 143 -173 165 -352 16 -127 23 -4326 9 -4760 -16 -479
-35 -651 -88 -814 -33 -103 -67 -149 -137 -187 -36 -20 -222 -54 -293 -54 -95
0 -129 -70 -53 -110 29 -15 315 -15 686 1 165 7 335 7 535 0 404 -15 847 -16
881 -2 36 14 51 43 38 75 -11 30 -22 33 -165 41 -159 9 -328 33 -386 54 -177
68 -223 197 -260 721 -17 248 -25 2516 -9 2535 11 13 241 15 1865 15 1560 0
1854 -2 1864 -14 15 -18 16 -2065 1 -2396 -26 -552 -74 -768 -192 -847 -53
-35 -100 -48 -238 -64 -52 -6 -110 -13 -127 -15 -58 -8 -68 -67 -16 -101 21
-14 55 -16 236 -15 117 2 324 7 460 13 169 7 340 6 535 0 348 -13 840 -16 867
-5 55 20 70 59 35 94 -16 16 -33 20 -83 20 -93 0 -396 37 -445 54 -150 53
-216 174 -246 452 -38 347 -41 525 -41 2829 0 2315 2 2462 40 2624 31 129 96
216 195 258 45 19 229 53 289 53 59 0 91 21 91 60 0 21 -8 35 -26 46 -22 15
-54 17 -242 15 -119 -1 -328 -6 -465 -12 -168 -6 -334 -6 -515 0 -405 16 -783
17 -810 2 -26 -14 -41 -46 -35 -72 7 -27 48 -37 178 -43 267 -14 434 -90 494
-227 63 -143 71 -294 71 -1426 0 -912 0 -933 -19 -943 -13 -7 -610 -10 -1860
-10 -1659 0 -1841 2 -1855 16 -14 14 -16 105 -16 852 0 860 10 1258 34 1385
33 171 96 263 210 306 63 23 217 51 286 51 55 0 90 22 90 56 0 35 -34 64 -77
65 -99 3 -432 -3 -648 -12 -160 -6 -343 -6 -550 1 -335 11 -682 17 -730 12z"/>
<path d="M38873 7539 c-52 -7 -73 -24 -73 -60 0 -45 29 -56 170 -63 328 -16
478 -107 534 -324 34 -128 37 -318 43 -2157 5 -1789 -4 -2818 -27 -3100 -26
-321 -71 -504 -144 -583 -47 -53 -150 -84 -332 -101 -102 -9 -114 -15 -114
-63 0 -43 35 -60 127 -60 43 -1 292 5 553 12 376 10 537 10 770 1 916 -37
1976 -52 2137 -30 161 21 213 74 257 256 57 242 116 659 116 826 0 112 -15
144 -63 132 -38 -10 -52 -36 -72 -135 -47 -242 -173 -477 -307 -576 -119 -88
-217 -124 -412 -152 -157 -22 -891 -25 -1081 -4 -304 35 -478 117 -545 259
-52 110 -89 326 -110 633 -21 316 -30 1002 -29 2370 0 1456 10 2257 29 2395
29 204 97 307 236 356 66 23 238 49 334 49 75 0 110 18 110 56 0 35 -34 64
-77 65 -100 3 -456 -3 -703 -12 -184 -6 -375 -6 -580 1 -382 13 -692 17 -747
9z"/>
</g>
</svg>
