<svg id="visual" viewBox="0 0 300 300" width="300" height="300" xmlns="http://www.w3.org/2000/svg" xmlns:xlink="http://www.w3.org/1999/xlink" version="1.1"><g transform="translate(147.19448171652968 152.76990447601682)"><path d="M41.4 -49.1C53.8 -39.1 63.8 -26 65.6 -12.1C67.4 1.8 61 16.7 52.3 28.9C43.7 41 32.8 50.6 19.9 55.7C7.1 60.8 -7.8 61.4 -19.5 56.1C-31.3 50.7 -40 39.4 -47.6 27.1C-55.1 14.8 -61.5 1.4 -60.1 -11.2C-58.6 -23.8 -49.2 -35.7 -37.9 -45.8C-26.6 -56 -13.3 -64.5 0.6 -65.3C14.6 -66 29.1 -59.1 41.4 -49.1" fill="#222222"></path></g></svg>